<?xml version="1.0" standalone="no"?>
<!DOCTYPE svg PUBLIC "-//W3C//DTD SVG 20010904//EN"
 "http://www.w3.org/TR/2001/REC-SVG-20010904/DTD/svg10.dtd">
<svg version="1.0" xmlns="http://www.w3.org/2000/svg"
 width="656.000000pt" height="656.000000pt" viewBox="0 0 656.000000 656.000000"
 preserveAspectRatio="xMidYMid meet">

<g transform="translate(0.000000,656.000000) scale(0.100000,-0.100000)"
fill="#000000" stroke="none">
<path d="M2965 5925 c-313 -39 -563 -114 -860 -259 -690 -338 -1187 -938
-1394 -1686 -123 -442 -123 -958 0 -1400 97 -350 260 -675 476 -949 97 -122
309 -334 439 -438 272 -218 599 -384 954 -482 442 -123 958 -123 1400 0 847
235 1511 849 1806 1669 107 298 154 572 154 900 0 329 -47 605 -154 900 -139
384 -330 683 -626 981 -216 218 -426 368 -705 505 -302 148 -547 221 -870 259
-145 18 -478 18 -620 0z m596 -410 c315 -37 676 -169 949 -349 492 -324 823
-796 966 -1380 76 -312 72 -719 -10 -1051 -44 -178 -80 -276 -165 -450 -115
-234 -254 -427 -438 -606 -200 -194 -357 -307 -588 -420 -215 -104 -395 -163
-630 -206 -144 -26 -586 -26 -730 0 -235 43 -415 102 -630 206 -231 113 -388
226 -588 420 -184 179 -323 372 -438 606 -85 174 -121 272 -165 450 -126 507
-69 1059 157 1521 298 611 822 1037 1487 1210 75 19 187 41 247 48 150 19 424
19 576 1z"/>
<path d="M3207 4495 c-169 -60 -172 -310 -5 -380 95 -39 217 5 263 95 41 81
21 186 -47 244 -64 55 -135 69 -211 41z"/>
<path d="M3103 3710 c-105 -22 -181 -74 -214 -145 -67 -145 66 -311 224 -278
29 6 54 9 56 8 1 -2 -41 -181 -95 -397 -110 -443 -117 -502 -76 -608 81 -205
300 -310 511 -245 93 28 158 90 173 167 16 75 0 127 -55 185 -35 36 -52 45
-100 55 -49 10 -65 10 -101 -3 l-42 -15 99 400 c113 452 120 511 79 616 -44
112 -136 202 -247 241 -67 23 -154 31 -212 19z"/>
</g>
</svg>
